<svg width="1280" height="202" viewBox="0 0 1280 202" fill="none" xmlns="http://www.w3.org/2000/svg">
  <g clip-path="url(#background-welcome_svg__a)">
    <path fill="#2C2A3B" d="M0 0h1280v202H0z"/>
    <mask id="background-welcome_svg__b" maskUnits="userSpaceOnUse" x="-968" y="-327" width="3937" height="818" fill="#000">
      <path fill="#fff" d="M-968-327h3937v818H-968z"/>
      <path d="M-922.585 350.842c9.426-32.108 18.853-64.938 37.516-93.132 17.294-26.18 40.518-49.321 65.262-68.471 57.775-44.723 123.798-58.174 195.485-51.069 66.441 6.574 131.703 24.85 198.867 22.913 34.475-1.026 70.432-2.508 104.222-9.728 33.791-7.219 63.325-20.708 93.466-34.615 34.893-16.111 70.205-31.538 103.881-50.157 14.976-8.283 29.192-17.06 41.963-28.536 10.3-9.271 22.084-29.068 35.349-33.59l-39.53-11.171c-6.272 22.342-22.16 39.973-35.159 58.668-16.648 23.9-31.814 49.929-43.749 76.489-13.532 30.208-27.215 67.635-28.318 100.959-.418 13.033 1.711 24.09 13.95 30.094 12.239 6.004 32.65 13.299 45.878 7.828 15.736-6.536 29.913-22.837 43.33-33.134 24.327-18.733 47.931-38.53 69.825-60.15C25.34 128.937 61.602 74.296 115.576 38.047l-40.405-10.83C59.55 47.965 49.553 73.158 37.618 96.146c-13.684 26.332-24.669 53.956-34.513 81.922-9.845 27.967-24.06 57.225-24.82 87.091-.305 12.501 3.116 18.39 14.595 22.798 16.61 6.346 33.905 11.133 50.173 2.546 20.601-10.905 34.437-31.652 47.246-50.423 15.888-23.292 33.145-45.255 50.743-67.293 21.628-27.092 43.369-54.109 65.871-80.517 9.731-11.437 20.335-21.734 31.13-32.184 8.818-8.511 21.248-29.562 33.715-31.956l-25.201-5.243c-10.68-3.192 6.842 5.776 9.769 6.991 9.806 4.028 20.525 6.688 30.864 9.082 23.376 5.471 48.044 10.145 72.142 9.5 32.347-.875 108.214-18.126 108.404-61.405.152-36.933-63.78-48.029-89.969-36.287-20.791 9.347-39.492 27.776-56.102 43.05-20.032 18.43-37.326 38.986-48.957 63.76-14.178 30.246-43.977 91.156-2.357 111.599 34.931 17.175 78.3 19.949 114.22 5.358 49.679-20.139 94.264-58.972 135.543-92.296C564.623 46.33 607.042 7.953 647.864-32.06c45.118-44.19 91.718-88.154 131.4-137.398 19.803-24.547 38.504-50.841 51.997-79.453 6.804-14.439 24.061-43.925 16.003-59.922-3.573-7.105-30.294-10.677-37.364-11.095-17.712-1.026-32.042 8.967-45.878 18.923-20.031 14.477-39.72 29.41-58.117 45.938-38.352 34.502-70.242 74.893-96.468 119.236-28.166 47.573-58.079 94.538-82.178 144.353-23.528 48.637-39.378 100.465-59.181 150.66-19.803 50.194-35.311 103.885-48.69 158.335-6.082 24.774-11.897 49.663-15.09 74.969-2.585 20.367-7.982 50.613 3.649 69.383 8.704 14.098 25.01 18.581 40.176 22.153 6.614 1.558 14.672 4.18 21.438 2.356 10.3-2.736 20.943-14.553 29.115-20.975 36.984-29.03 60.74-77.363 80.847-119.084 25.656-53.234 56.938-99.439 99.243-141.084 20.526-20.177 42.153-39.594 65.491-56.503 24.555-17.744 53.556-38.643 83.165-46.318 2.623-.684-12.239-5.89-13.455-6.27-6.462-1.938-18.245-7.068-25.2-5.244-40.367 10.488-80.125 41.304-111.369 67.826-35.083 29.752-68 62.734-94.948 100.085-26.949 37.352-42.685 82.189-67.392 121.744-10.87 17.403-20.411 36.326-33.486 52.246-6.804 8.284-14.824 15.123-23.224 21.697-4.98 3.914-22.312 21.963-28.926 20.785l31.624 8.891c-26.378-13.565-19.461-53.918-16.686-77.553 3.649-31.082 11.289-61.518 18.815-91.878 7.488-30.17 13.873-60.454 24.212-89.826 10.415-29.562 22.806-58.364 33.677-87.774 22.083-59.656 44.243-117.45 75.905-172.85 30.18-52.817 59.828-108.141 98.446-155.372 22.121-27.054 47.246-51.448 74.499-73.297 17.864-14.325 49.679-45.749 74.347-44.305l-37.364-11.095c5.018 9.955-.228 21.62-4.067 31.196-5.511 13.831-10.985 27.7-18.092 40.847-17.181 31.842-39.531 60.91-63.287 88.078-47.702 54.45-100.764 105.481-153.787 154.688C514.64 44.24 457.816 91.319 397.798 132.812c-28.165 19.493-59.295 38.834-94.568 39.746-2.091.038-10.681-.532-10.947-.304l5.816 1.558c6.195 2.356 7.563 2.47 4.067.304-.076-.836-6.272-6.194-7.146-7.448-2.281-3.268-3.687-6.269-4.713-10.107-3.915-14.629 1.824-31.082 6.423-44.875 11.441-34.236 24.783-65.28 49.831-91.916 12.771-13.565 26.949-25.686 41.431-37.39 15.242-12.349 32.232-27.396 53.365-24.66l-27.823-6.687c11.137 3.571 14.9 19.872 13.418 29.866-1.787 11.93-9.275 21.088-18.815 27.852-20.525 14.59-49.033 24.09-73.853 27.054-17.219 2.052-37.288 1.824-54.088-3.42 11.783 3.686-1.216-2.508-3.459-3.685-3.687-1.938-7.298-3.42-11.251-4.826-9.046-3.23-20.601-7.524-30.18-7.372-9.578.152-13.037 5.852-18.89 12.805-18.511 22.039-40.519 40.772-59.068 62.924-20.715 24.737-40.974 49.891-61.081 75.121-17.979 22.609-34.78 45.521-51.39 69.118-7.83 11.095-16.002 22.304-26.112 31.462C13.253 272.909-.62 285.22-8.26 284.118l33.525 9.918c-12.924-7.03-4.98-32.906-2.243-43.811 4.295-17.213 10.49-33.78 16.572-50.385 9.997-27.32 19.651-54.64 32.346-80.897 12.696-26.256 25.657-57.224 43.712-81.162-.875 1.178-34.247-14.933-40.405-10.83C24.2 61.226-10.883 111.953-53.263 155.46c-23.073 23.71-48.349 45.217-74.462 65.47-8.4 6.535-16.724 12.995-24.896 19.834-5.55 4.636-17.219 17.327-25.239 16.757l31.814 8.094c-13.379-5.32-5.359-41.494-3.192-51.449 3.42-15.693 8.438-31.006 13.531-46.243 11.023-32.906 27.747-62.772 46.144-92.068 14.786-23.558 36.223-44.799 43.901-72.08.798-2.889-35.5-12.54-39.53-11.172-9.73 3.306-14.976 12.083-21.779 19.34-10.415 11.058-21.818 21.545-34.475 30.019-27.899 18.656-59.448 32.601-89.817 46.623-34.361 15.882-68.532 33.209-104.755 44.533-36.224 11.323-70.85 12.805-106.922 14.97-133.604 8.056-271.846-64.063-395.605 14.744-29.458 18.77-56.331 43.241-77.654 70.903-24.251 31.69-35.768 68.775-46.79 106.279-.761 2.659 39.416 14.135 40.404 10.829Z"/>
      <path d="M1021.2 21.062c-19.96-47.307-84.956-49.89-126.196-31.994-31.32 13.603-60.892 35.718-81.911 62.734-10.149 13.033-17.599 27.814-26.189 41.835-9.731 15.845-19.917 31.386-26.645 48.827-9.35 24.204-22.35 58.972-8.058 83.48 10.985 18.847 41.431 26.332 61.804 26.902 27.177.798 51.199-26.446 71.23-41.379 31.7-23.596 63.666-46.775 95.329-70.409 34.926-26.028 70.776-50.917 108.066-73.45 37.28-22.532 76.2-42.29 112.28-66.875.19-.152-16.31-6.497-16.99-6.687-6.62-1.862-15.59-5.472-22.54-4.484-13.88 1.9-25.09 14.857-35.69 22.912-20 15.237-41.28 28.422-60.52 44.685-25.08 21.203-46.56 45.787-64.96 72.918-11.284 16.68-34.356 46.888-28.047 68.775 2.889 9.993 12.43 12.957 21.4 15.921 16.537 5.472 34.857 10.183 52.227 6.459 39.95-8.625 72.37-45.331 101.03-72.005 23.53-21.886 41.66-44.191 55.19-72.955 10.53-22.304 27.56-52.778 25.58-78.313-.65-8.473-3.8-11.589-11.37-14.78-7.56-3.192-38.42-15.998-40.82-3.762-2.54 13.109 26.8 23.444 35.5 26.104 19.84 6.041 39.72 9.423 60.44 6.535 24.02-3.343 45.61-11.855 62.68-29.486 17.98-18.542 27.71-44.267 46.06-61.745.5-.494-18.09-6.992-19.65-7.41-4.22-1.14-16.61-6.308-20.71-3.382-26.42 18.733-41.13 49.473-53.79 78.389-13.91 31.842-24.17 65.128-34.55 98.261-11.02 35.186-22.57 70.182-31.47 106.013-4.26 17.137-8.02 34.274-10.34 51.791-2.01 15.161-3.91 29.676-11.02 43.393l40.4 10.829c3.84-49.282 34.97-93.853 63.29-132.649 15.01-20.556 31.7-39.821 52.76-54.374 9.96-6.878 20.49-12.843 30.14-20.215 10.49-7.98 22.43-17.82 36.53-17.365l-31.82-8.093c17.79 6.535-16.76 90.434-20.86 100.883-7 17.707-14.98 35.034-23.3 52.171-8.33 17.136-15.44 34.805-28.51 48.75l40.4 10.83c3.96-6.46 7.76-12.388 13.15-17.745l-40.4-10.829c0 2.811-.87 5.281-2.62 7.485.19-.342 36.83 16.301 40.4 10.829 14.83-22.95 29.88-46.433 50.25-64.937 10.38-9.424 21.7-16.529 34.17-22.799 9.66-4.863 21.63-13.223 32.77-12.007l-34.86-9.347c12.77 6.117 2.78 39.935-.46 49.776-9.12 28.004-22.76 54.185-31.39 82.569-8.63 28.384-14.67 59.922-19.12 90.244-2.66 18.162-10.23 52.474 7.79 65.621 9.47 6.878 34.48 13.983 45.54 8.55 8.59-4.218 14.06-15.693 20.64-22.457 10.18-10.449 20.9-20.176 30.71-31.006 39.95-44.229 68.95-94.195 101.45-143.744 18.13-27.662 37.93-53.652 59.86-78.389 11.59-13.033 28.74-42.823 48.31-42.443l-38.65-11.513-6.81.19 38.66 11.513c17.37-.836 32.76-13.755 48.35-20.557 17.86-7.827 36.11-14.287 53.25-23.71 29.95-16.453 60.78-40.62 75.37-72.5 12.35-26.977 2.74-47.002-24.06-55.552-11.33-3.61-24.1-7.409-36.11-7.181-17.03.342-29.19 10.753-42.07 20.67-30.53 23.521-57.67 47.877-77.58 81.353-15.74 26.408-29.69 56.388-36.38 86.558-5.47 24.547-4.29 52.247 19.73 66.154 24.02 13.907 55.72 19.607 82.18 22.001 37.78 3.419 63.59-15.503 94.45-34.16 30.86-18.657 57.7-46.129 88.11-67.142 66.63-46.053 137.21-86.482 211.33-119.16 39.65-17.479 79.06-32.602 122.47-36.971 41.09-4.18 81.76 2.128 122.81 3.002 85.56 1.823 169.64-3.572 254.63-12.426 44.77-4.673 90.12-9.727 132.46-25.914 39.34-15.047 77.31-36.022 114.37-55.932 24.94-13.413 39-33.362 49.6-59.01 2.59-6.27 8.1-17.403 3.08-23.749-6.5-8.245-27.71-10.031-37.25-11.627-7.52-1.254-6.23-.076-.76 2.85 8.1 4.332 19.54 6.118 28.55 7.637l1.82.304-33.52-9.917c10.41 5.814-8.06 36.136-11.63 42.519-11.63 20.937-26.61 33.476-48.31 44.229-29.99 14.819-59.07 31.5-89.71 44.99-33.06 14.552-67.88 22.266-103.57 27.13-70.32 9.537-141.89 17.098-212.9 17.364-38.92.152-77.99 1.444-116.84-1.292-32.99-2.317-65.22-4.901-98.25-.874-65.38 7.942-127.64 39.556-185.45 69.498-57.82 29.942-122.55 66.837-175.57 110.078-24.78 20.215-48.5 38.53-75.49 55.781-23.45 14.971-71.61 39.137-91.98 6.877-12.43-19.644-6.31-46.395.27-66.951 8.47-26.523 20.6-52.665 35.34-76.261 19.43-31.044 45.62-53.843 74.35-75.995 6.46-4.978 12.73-10.715 19.96-14.515.87-.456 15.5-6.194 15.62-5.168l-18.66-6.08 2.92 2.508c2.93 8.74 7.03 11.4 7.07 21.469 0 6.916-1.75 13.451-4.41 19.759-12.65 30.132-40.74 53.842-68.11 70.219-17.26 10.335-35.58 18.01-54.2 25.496-16.99 6.802-35.69 22.001-53.98 22.875-2.16.114 12.05 5.851 13.46 6.269 7.83 2.356 16.88 5.472 25.2 5.244l6.8-.19c2.09-.076-11.97-5.814-13.45-6.27-8.06-2.431-16.73-5.091-25.2-5.243-21.29-.418-39.65 31.424-52.38 45.673-27.29 30.55-50.4 64.063-72.18 98.679-21.78 34.616-41.43 67.218-66.86 97.882-12.12 14.629-24.67 29.106-38.35 42.329-6.61 6.383-13.49 12.387-19.31 19.568-5.4 6.612-9.16 14.477-18.51 15.845l38.96 10.45c-17.29-16.605-8.93-50.385-5.55-71.056 4.33-26.826 9.24-53.766 16.99-79.832 7.64-25.611 17.56-49.397 27.82-73.981 6.24-15.009 12.62-34.426 10.08-50.993-2.32-15.313-16.54-17.403-29.84-20.746-16.61-4.18-27.44-3.192-42.91 4.179-43.75 20.899-69.52 53.083-95.37 93.17l40.4 10.829c1.75-2.204 2.63-4.673 2.63-7.485.49-2.926-37.1-14.097-40.41-10.83-5.4 5.358-9.2 11.286-13.15 17.745.49-.798 35.54 15.997 40.4 10.83 17.91-19.037 27.87-46.585 38.58-70.068 10.99-24.014 19.92-48.447 27.71-73.677 4.56-14.781 18.74-45.825 5.06-59.2-9.43-9.195-34.86-14.135-47.78-13.147-21.13 1.596-38.12 19.949-54.96 30.854-24.18 15.655-43.33 33.78-60.63 56.806-29.87 39.708-63.02 86.748-67.01 137.703-.26 3.534 38.7 14.059 40.41 10.829 7.1-13.717 9-28.232 11.02-43.393 2.32-17.479 6.08-34.653 10.34-51.79 8.89-35.794 20.41-70.828 31.47-106.013 10.38-33.134 20.64-66.42 34.55-98.262 12.66-28.916 27.37-59.656 53.78-78.389l-40.4-10.829c-11.52 10.944-18.09 26.218-27.44 38.948-11.33 15.35-23.8 31.424-41.13 40.353-15.93 8.207-32.35 8.93-49.41 12.35-18.02 3.609 13.23 2.887 9.88 5.737-.57.494-6.96-4.788-7.75-5.472-3.27-2.888-4.87-5.358-7.53-8.93l-.57-2.697c3.88-12.235-6.58-16.415-31.32-12.463.23 6.573 3.08 11.855 1.9 19.454-1.6 10.374-5.09 20.519-8.7 30.322-6.92 18.847-15.28 37.314-24.56 55.135-13.23 25.496-35.19 45.141-56.1 64.291-25.01 22.875-51.62 51.677-85.1 61.48-9.32 2.736-31.02-.532-6.81 5.776 20.15 5.244 10.11 4.142 7.41-4.56-2.54-8.283 1.3-18.543 4.22-26.18 7.57-19.493 19.77-37.428 32.01-54.26 18.32-25.193 39.72-47.65 64.01-67.218 16.38-13.223 34.09-24.394 50.97-36.895 10.72-7.942 22.5-22.153 36.3-24.09l-39.53-11.172c-49.99 34.084-104.68 60.53-155.05 94.082-51.233 34.159-99.81 72.195-149.526 108.444-19.575 14.287-38.504 33.514-60.436 44.153-3.649 1.786-11.023 2.052-13.189 4.408-7.526 8.398 21.665-.38 18.396 5.168-.418.684-10.566-14.021-11.402-16.225-3.991-10.449-3.117-22.571-1.255-33.362 4.143-24.28 13.266-48.637 25.505-69.915 13.265-23.065 26.417-48.409 43.635-68.776 19.575-23.14 45.004-42.557 72.409-55.476 14.101-6.65 28.089-10.525 43.369-12.92 22.311-3.495-11.859.19-10.263-4.255 0 .038 5.816 4.75 6.31 5.244 5.435 5.547 8.742 12.615 11.707 19.645 1.786 4.255 15.698 6.383 19.65 7.409 1.9.494 20.6 3.116 20.72 3.382l.19-.228Z"/>
    </mask>
    <path d="M-922.585 350.842c9.426-32.108 18.853-64.938 37.516-93.132 17.294-26.18 40.518-49.321 65.262-68.471 57.775-44.723 123.798-58.174 195.485-51.069 66.441 6.574 131.703 24.85 198.867 22.913 34.475-1.026 70.432-2.508 104.222-9.728 33.791-7.219 63.325-20.708 93.466-34.615 34.893-16.111 70.205-31.538 103.881-50.157 14.976-8.283 29.192-17.06 41.963-28.536 10.3-9.271 22.084-29.068 35.349-33.59l-39.53-11.171c-6.272 22.342-22.16 39.973-35.159 58.668-16.648 23.9-31.814 49.929-43.749 76.489-13.532 30.208-27.215 67.635-28.318 100.959-.418 13.033 1.711 24.09 13.95 30.094 12.239 6.004 32.65 13.299 45.878 7.828 15.736-6.536 29.913-22.837 43.33-33.134 24.327-18.733 47.931-38.53 69.825-60.15C25.34 128.937 61.602 74.296 115.576 38.047l-40.405-10.83C59.55 47.965 49.553 73.158 37.618 96.146c-13.684 26.332-24.669 53.956-34.513 81.922-9.845 27.967-24.06 57.225-24.82 87.091-.305 12.501 3.116 18.39 14.595 22.798 16.61 6.346 33.905 11.133 50.173 2.546 20.601-10.905 34.437-31.652 47.246-50.423 15.888-23.292 33.145-45.255 50.743-67.293 21.628-27.092 43.369-54.109 65.871-80.517 9.731-11.437 20.335-21.734 31.13-32.184 8.818-8.511 21.248-29.562 33.715-31.956l-25.201-5.243c-10.68-3.192 6.842 5.776 9.769 6.991 9.806 4.028 20.525 6.688 30.864 9.082 23.376 5.471 48.044 10.145 72.142 9.5 32.347-.875 108.214-18.126 108.404-61.405.152-36.933-63.78-48.029-89.969-36.287-20.791 9.347-39.492 27.776-56.102 43.05-20.032 18.43-37.326 38.986-48.957 63.76-14.178 30.246-43.977 91.156-2.357 111.599 34.931 17.175 78.3 19.949 114.22 5.358 49.679-20.139 94.264-58.972 135.543-92.296C564.623 46.33 607.042 7.953 647.864-32.06c45.118-44.19 91.718-88.154 131.4-137.398 19.803-24.547 38.504-50.841 51.997-79.453 6.804-14.439 24.061-43.925 16.003-59.922-3.573-7.105-30.294-10.677-37.364-11.095-17.712-1.026-32.042 8.967-45.878 18.923-20.031 14.477-39.72 29.41-58.117 45.938-38.352 34.502-70.242 74.893-96.468 119.236-28.166 47.573-58.079 94.538-82.178 144.353-23.528 48.637-39.378 100.465-59.181 150.66-19.803 50.194-35.311 103.885-48.69 158.335-6.082 24.774-11.897 49.663-15.09 74.969-2.585 20.367-7.982 50.613 3.649 69.383 8.704 14.098 25.01 18.581 40.176 22.153 6.614 1.558 14.672 4.18 21.438 2.356 10.3-2.736 20.943-14.553 29.115-20.975 36.984-29.03 60.74-77.363 80.847-119.084 25.656-53.234 56.938-99.439 99.243-141.084 20.526-20.177 42.153-39.594 65.491-56.503 24.555-17.744 53.556-38.643 83.165-46.318 2.623-.684-12.239-5.89-13.455-6.27-6.462-1.938-18.245-7.068-25.2-5.244-40.367 10.488-80.125 41.304-111.369 67.826-35.083 29.752-68 62.734-94.948 100.085-26.949 37.352-42.685 82.189-67.392 121.744-10.87 17.403-20.411 36.326-33.486 52.246-6.804 8.284-14.824 15.123-23.224 21.697-4.98 3.914-22.312 21.963-28.926 20.785l31.624 8.891c-26.378-13.565-19.461-53.918-16.686-77.553 3.649-31.082 11.289-61.518 18.815-91.878 7.488-30.17 13.873-60.454 24.212-89.826 10.415-29.562 22.806-58.364 33.677-87.774 22.083-59.656 44.243-117.45 75.905-172.85 30.18-52.817 59.828-108.141 98.446-155.372 22.121-27.054 47.246-51.448 74.499-73.297 17.864-14.325 49.679-45.749 74.347-44.305l-37.364-11.095c5.018 9.955-.228 21.62-4.067 31.196-5.511 13.831-10.985 27.7-18.092 40.847-17.181 31.842-39.531 60.91-63.287 88.078-47.702 54.45-100.764 105.481-153.787 154.688C514.64 44.24 457.816 91.319 397.798 132.812c-28.165 19.493-59.295 38.834-94.568 39.746-2.091.038-10.681-.532-10.947-.304l5.816 1.558c6.195 2.356 7.563 2.47 4.067.304-.076-.836-6.272-6.194-7.146-7.448-2.281-3.268-3.687-6.269-4.713-10.107-3.915-14.629 1.824-31.082 6.423-44.875 11.441-34.236 24.783-65.28 49.831-91.916 12.771-13.565 26.949-25.686 41.431-37.39 15.242-12.349 32.232-27.396 53.365-24.66l-27.823-6.687c11.137 3.571 14.9 19.872 13.418 29.866-1.787 11.93-9.275 21.088-18.815 27.852-20.525 14.59-49.033 24.09-73.853 27.054-17.219 2.052-37.288 1.824-54.088-3.42 11.783 3.686-1.216-2.508-3.459-3.685-3.687-1.938-7.298-3.42-11.251-4.826-9.046-3.23-20.601-7.524-30.18-7.372-9.578.152-13.037 5.852-18.89 12.805-18.511 22.039-40.519 40.772-59.068 62.924-20.715 24.737-40.974 49.891-61.081 75.121-17.979 22.609-34.78 45.521-51.39 69.118-7.83 11.095-16.002 22.304-26.112 31.462C13.253 272.909-.62 285.22-8.26 284.118l33.525 9.918c-12.924-7.03-4.98-32.906-2.243-43.811 4.295-17.213 10.49-33.78 16.572-50.385 9.997-27.32 19.651-54.64 32.346-80.897 12.696-26.256 25.657-57.224 43.712-81.162-.875 1.178-34.247-14.933-40.405-10.83C24.2 61.226-10.883 111.953-53.263 155.46c-23.073 23.71-48.349 45.217-74.462 65.47-8.4 6.535-16.724 12.995-24.896 19.834-5.55 4.636-17.219 17.327-25.239 16.757l31.814 8.094c-13.379-5.32-5.359-41.494-3.192-51.449 3.42-15.693 8.438-31.006 13.531-46.243 11.023-32.906 27.747-62.772 46.144-92.068 14.786-23.558 36.223-44.799 43.901-72.08.798-2.889-35.5-12.54-39.53-11.172-9.73 3.306-14.976 12.083-21.779 19.34-10.415 11.058-21.818 21.545-34.475 30.019-27.899 18.656-59.448 32.601-89.817 46.623-34.361 15.882-68.532 33.209-104.755 44.533-36.224 11.323-70.85 12.805-106.922 14.97-133.604 8.056-271.846-64.063-395.605 14.744-29.458 18.77-56.331 43.241-77.654 70.903-24.251 31.69-35.768 68.775-46.79 106.279-.761 2.659 39.416 14.135 40.404 10.829Z" fill="#373545"/>
    <path d="M1021.2 21.062c-19.96-47.307-84.956-49.89-126.196-31.994-31.32 13.603-60.892 35.718-81.911 62.734-10.149 13.033-17.599 27.814-26.189 41.835-9.731 15.845-19.917 31.386-26.645 48.827-9.35 24.204-22.35 58.972-8.058 83.48 10.985 18.847 41.431 26.332 61.804 26.902 27.177.798 51.199-26.446 71.23-41.379 31.7-23.596 63.666-46.775 95.329-70.409 34.926-26.028 70.776-50.917 108.066-73.45 37.28-22.532 76.2-42.29 112.28-66.875.19-.152-16.31-6.497-16.99-6.687-6.62-1.862-15.59-5.472-22.54-4.484-13.88 1.9-25.09 14.857-35.69 22.912-20 15.237-41.28 28.422-60.52 44.685-25.08 21.203-46.56 45.787-64.96 72.918-11.284 16.68-34.356 46.888-28.047 68.775 2.889 9.993 12.43 12.957 21.4 15.921 16.537 5.472 34.857 10.183 52.227 6.459 39.95-8.625 72.37-45.331 101.03-72.005 23.53-21.886 41.66-44.191 55.19-72.955 10.53-22.304 27.56-52.778 25.58-78.313-.65-8.473-3.8-11.589-11.37-14.78-7.56-3.192-38.42-15.998-40.82-3.762-2.54 13.109 26.8 23.444 35.5 26.104 19.84 6.041 39.72 9.423 60.44 6.535 24.02-3.343 45.61-11.855 62.68-29.486 17.98-18.542 27.71-44.267 46.06-61.745.5-.494-18.09-6.992-19.65-7.41-4.22-1.14-16.61-6.308-20.71-3.382-26.42 18.733-41.13 49.473-53.79 78.389-13.91 31.842-24.17 65.128-34.55 98.261-11.02 35.186-22.57 70.182-31.47 106.013-4.26 17.137-8.02 34.274-10.34 51.791-2.01 15.161-3.91 29.676-11.02 43.393l40.4 10.829c3.84-49.282 34.97-93.853 63.29-132.649 15.01-20.556 31.7-39.821 52.76-54.374 9.96-6.878 20.49-12.843 30.14-20.215 10.49-7.98 22.43-17.82 36.53-17.365l-31.82-8.093c17.79 6.535-16.76 90.434-20.86 100.883-7 17.707-14.98 35.034-23.3 52.171-8.33 17.136-15.44 34.805-28.51 48.75l40.4 10.83c3.96-6.46 7.76-12.388 13.15-17.745l-40.4-10.829c0 2.811-.87 5.281-2.62 7.485.19-.342 36.83 16.301 40.4 10.829 14.83-22.95 29.88-46.433 50.25-64.937 10.38-9.424 21.7-16.529 34.17-22.799 9.66-4.863 21.63-13.223 32.77-12.007l-34.86-9.347c12.77 6.117 2.78 39.935-.46 49.776-9.12 28.004-22.76 54.185-31.39 82.569-8.63 28.384-14.67 59.922-19.12 90.244-2.66 18.162-10.23 52.474 7.79 65.621 9.47 6.878 34.48 13.983 45.54 8.55 8.59-4.218 14.06-15.693 20.64-22.457 10.18-10.449 20.9-20.176 30.71-31.006 39.95-44.229 68.95-94.195 101.45-143.744 18.13-27.662 37.93-53.652 59.86-78.389 11.59-13.033 28.74-42.823 48.31-42.443l-38.65-11.513-6.81.19 38.66 11.513c17.37-.836 32.76-13.755 48.35-20.557 17.86-7.827 36.11-14.287 53.25-23.71 29.95-16.453 60.78-40.62 75.37-72.5 12.35-26.977 2.74-47.002-24.06-55.552-11.33-3.61-24.1-7.409-36.11-7.181-17.03.342-29.19 10.753-42.07 20.67-30.53 23.521-57.67 47.877-77.58 81.353-15.74 26.408-29.69 56.388-36.38 86.558-5.47 24.547-4.29 52.247 19.73 66.154 24.02 13.907 55.72 19.607 82.18 22.001 37.78 3.419 63.59-15.503 94.45-34.16 30.86-18.657 57.7-46.129 88.11-67.142 66.63-46.053 137.21-86.482 211.33-119.16 39.65-17.479 79.06-32.602 122.47-36.971 41.09-4.18 81.76 2.128 122.81 3.002 85.56 1.823 169.64-3.572 254.63-12.426 44.77-4.673 90.12-9.727 132.46-25.914 39.34-15.047 77.31-36.022 114.37-55.932 24.94-13.413 39-33.362 49.6-59.01 2.59-6.27 8.1-17.403 3.08-23.749-6.5-8.245-27.71-10.031-37.25-11.627-7.52-1.254-6.23-.076-.76 2.85 8.1 4.332 19.54 6.118 28.55 7.637l1.82.304-33.52-9.917c10.41 5.814-8.06 36.136-11.63 42.519-11.63 20.937-26.61 33.476-48.31 44.229-29.99 14.819-59.07 31.5-89.71 44.99-33.06 14.552-67.88 22.266-103.57 27.13-70.32 9.537-141.89 17.098-212.9 17.364-38.92.152-77.99 1.444-116.84-1.292-32.99-2.317-65.22-4.901-98.25-.874-65.38 7.942-127.64 39.556-185.45 69.498-57.82 29.942-122.55 66.837-175.57 110.078-24.78 20.215-48.5 38.53-75.49 55.781-23.45 14.971-71.61 39.137-91.98 6.877-12.43-19.644-6.31-46.395.27-66.951 8.47-26.523 20.6-52.665 35.34-76.261 19.43-31.044 45.62-53.843 74.35-75.995 6.46-4.978 12.73-10.715 19.96-14.515.87-.456 15.5-6.194 15.62-5.168l-18.66-6.08 2.92 2.508c2.93 8.74 7.03 11.4 7.07 21.469 0 6.916-1.75 13.451-4.41 19.759-12.65 30.132-40.74 53.842-68.11 70.219-17.26 10.335-35.58 18.01-54.2 25.496-16.99 6.802-35.69 22.001-53.98 22.875-2.16.114 12.05 5.851 13.46 6.269 7.83 2.356 16.88 5.472 25.2 5.244l6.8-.19c2.09-.076-11.97-5.814-13.45-6.27-8.06-2.431-16.73-5.091-25.2-5.243-21.29-.418-39.65 31.424-52.38 45.673-27.29 30.55-50.4 64.063-72.18 98.679-21.78 34.616-41.43 67.218-66.86 97.882-12.12 14.629-24.67 29.106-38.35 42.329-6.61 6.383-13.49 12.387-19.31 19.568-5.4 6.612-9.16 14.477-18.51 15.845l38.96 10.45c-17.29-16.605-8.93-50.385-5.55-71.056 4.33-26.826 9.24-53.766 16.99-79.832 7.64-25.611 17.56-49.397 27.82-73.981 6.24-15.009 12.62-34.426 10.08-50.993-2.32-15.313-16.54-17.403-29.84-20.746-16.61-4.18-27.44-3.192-42.91 4.179-43.75 20.899-69.52 53.083-95.37 93.17l40.4 10.829c1.75-2.204 2.63-4.673 2.63-7.485.49-2.926-37.1-14.097-40.41-10.83-5.4 5.358-9.2 11.286-13.15 17.745.49-.798 35.54 15.997 40.4 10.83 17.91-19.037 27.87-46.585 38.58-70.068 10.99-24.014 19.92-48.447 27.71-73.677 4.56-14.781 18.74-45.825 5.06-59.2-9.43-9.195-34.86-14.135-47.78-13.147-21.13 1.596-38.12 19.949-54.96 30.854-24.18 15.655-43.33 33.78-60.63 56.806-29.87 39.708-63.02 86.748-67.01 137.703-.26 3.534 38.7 14.059 40.41 10.829 7.1-13.717 9-28.232 11.02-43.393 2.32-17.479 6.08-34.653 10.34-51.79 8.89-35.794 20.41-70.828 31.47-106.013 10.38-33.134 20.64-66.42 34.55-98.262 12.66-28.916 27.37-59.656 53.78-78.389l-40.4-10.829c-11.52 10.944-18.09 26.218-27.44 38.948-11.33 15.35-23.8 31.424-41.13 40.353-15.93 8.207-32.35 8.93-49.41 12.35-18.02 3.609 13.23 2.887 9.88 5.737-.57.494-6.96-4.788-7.75-5.472-3.27-2.888-4.87-5.358-7.53-8.93l-.57-2.697c3.88-12.235-6.58-16.415-31.32-12.463.23 6.573 3.08 11.855 1.9 19.454-1.6 10.374-5.09 20.519-8.7 30.322-6.92 18.847-15.28 37.314-24.56 55.135-13.23 25.496-35.19 45.141-56.1 64.291-25.01 22.875-51.62 51.677-85.1 61.48-9.32 2.736-31.02-.532-6.81 5.776 20.15 5.244 10.11 4.142 7.41-4.56-2.54-8.283 1.3-18.543 4.22-26.18 7.57-19.493 19.77-37.428 32.01-54.26 18.32-25.193 39.72-47.65 64.01-67.218 16.38-13.223 34.09-24.394 50.97-36.895 10.72-7.942 22.5-22.153 36.3-24.09l-39.53-11.172c-49.99 34.084-104.68 60.53-155.05 94.082-51.233 34.159-99.81 72.195-149.526 108.444-19.575 14.287-38.504 33.514-60.436 44.153-3.649 1.786-11.023 2.052-13.189 4.408-7.526 8.398 21.665-.38 18.396 5.168-.418.684-10.566-14.021-11.402-16.225-3.991-10.449-3.117-22.571-1.255-33.362 4.143-24.28 13.266-48.637 25.505-69.915 13.265-23.065 26.417-48.409 43.635-68.776 19.575-23.14 45.004-42.557 72.409-55.476 14.101-6.65 28.089-10.525 43.369-12.92 22.311-3.495-11.859.19-10.263-4.255 0 .038 5.816 4.75 6.31 5.244 5.435 5.547 8.742 12.615 11.707 19.645 1.786 4.255 15.698 6.383 19.65 7.409 1.9.494 20.6 3.116 20.72 3.382l.19-.228Z" fill="#373545"/>
    <path d="M-922.585 350.842c9.426-32.108 18.853-64.938 37.516-93.132 17.294-26.18 40.518-49.321 65.262-68.471 57.775-44.723 123.798-58.174 195.485-51.069 66.441 6.574 131.703 24.85 198.867 22.913 34.475-1.026 70.432-2.508 104.222-9.728 33.791-7.219 63.325-20.708 93.466-34.615 34.893-16.111 70.205-31.538 103.881-50.157 14.976-8.283 29.192-17.06 41.963-28.536 10.3-9.271 22.084-29.068 35.349-33.59l-39.53-11.171c-6.272 22.342-22.16 39.973-35.159 58.668-16.648 23.9-31.814 49.929-43.749 76.489-13.532 30.208-27.215 67.635-28.318 100.959-.418 13.033 1.711 24.09 13.95 30.094 12.239 6.004 32.65 13.299 45.878 7.828 15.736-6.536 29.913-22.837 43.33-33.134 24.327-18.733 47.931-38.53 69.825-60.15C25.34 128.937 61.602 74.296 115.576 38.047l-40.405-10.83C59.55 47.965 49.553 73.158 37.618 96.146c-13.684 26.332-24.669 53.956-34.513 81.922-9.845 27.967-24.06 57.225-24.82 87.091-.305 12.501 3.116 18.39 14.595 22.798 16.61 6.346 33.905 11.133 50.173 2.546 20.601-10.905 34.437-31.652 47.246-50.423 15.888-23.292 33.145-45.255 50.743-67.293 21.628-27.092 43.369-54.109 65.871-80.517 9.731-11.437 20.335-21.734 31.13-32.184 8.818-8.511 21.248-29.562 33.715-31.956l-25.201-5.243c-10.68-3.192 6.842 5.776 9.769 6.991 9.806 4.028 20.525 6.688 30.864 9.082 23.376 5.471 48.044 10.145 72.142 9.5 32.347-.875 108.214-18.126 108.404-61.405.152-36.933-63.78-48.029-89.969-36.287-20.791 9.347-39.492 27.776-56.102 43.05-20.032 18.43-37.326 38.986-48.957 63.76-14.178 30.246-43.977 91.156-2.357 111.599 34.931 17.175 78.3 19.949 114.22 5.358 49.679-20.139 94.264-58.972 135.543-92.296C564.623 46.33 607.042 7.953 647.864-32.06c45.118-44.19 91.718-88.154 131.4-137.398 19.803-24.547 38.504-50.841 51.997-79.453 6.804-14.439 24.061-43.925 16.003-59.922-3.573-7.105-30.294-10.677-37.364-11.095-17.712-1.026-32.042 8.967-45.878 18.923-20.031 14.477-39.72 29.41-58.117 45.938-38.352 34.502-70.242 74.893-96.468 119.236-28.166 47.573-58.079 94.538-82.178 144.353-23.528 48.637-39.378 100.465-59.181 150.66-19.803 50.194-35.311 103.885-48.69 158.335-6.082 24.774-11.897 49.663-15.09 74.969-2.585 20.367-7.982 50.613 3.649 69.383 8.704 14.098 25.01 18.581 40.176 22.153 6.614 1.558 14.672 4.18 21.438 2.356 10.3-2.736 20.943-14.553 29.115-20.975 36.984-29.03 60.74-77.363 80.847-119.084 25.656-53.234 56.938-99.439 99.243-141.084 20.526-20.177 42.153-39.594 65.491-56.503 24.555-17.744 53.556-38.643 83.165-46.318 2.623-.684-12.239-5.89-13.455-6.27-6.462-1.938-18.245-7.068-25.2-5.244-40.367 10.488-80.125 41.304-111.369 67.826-35.083 29.752-68 62.734-94.948 100.085-26.949 37.352-42.685 82.189-67.392 121.744-10.87 17.403-20.411 36.326-33.486 52.246-6.804 8.284-14.824 15.123-23.224 21.697-4.98 3.914-22.312 21.963-28.926 20.785l31.624 8.891c-26.378-13.565-19.461-53.918-16.686-77.553 3.649-31.082 11.289-61.518 18.815-91.878 7.488-30.17 13.873-60.454 24.212-89.826 10.415-29.562 22.806-58.364 33.677-87.774 22.083-59.656 44.243-117.45 75.905-172.85 30.18-52.817 59.828-108.141 98.446-155.372 22.121-27.054 47.246-51.448 74.499-73.297 17.864-14.325 49.679-45.749 74.347-44.305l-37.364-11.095c5.018 9.955-.228 21.62-4.067 31.196-5.511 13.831-10.985 27.7-18.092 40.847-17.181 31.842-39.531 60.91-63.287 88.078-47.702 54.45-100.764 105.481-153.787 154.688C514.64 44.24 457.816 91.319 397.798 132.812c-28.165 19.493-59.295 38.834-94.568 39.746-2.091.038-10.681-.532-10.947-.304l5.816 1.558c6.195 2.356 7.563 2.47 4.067.304-.076-.836-6.272-6.194-7.146-7.448-2.281-3.268-3.687-6.269-4.713-10.107-3.915-14.629 1.824-31.082 6.423-44.875 11.441-34.236 24.783-65.28 49.831-91.916 12.771-13.565 26.949-25.686 41.431-37.39 15.242-12.349 32.232-27.396 53.365-24.66l-27.823-6.687c11.137 3.571 14.9 19.872 13.418 29.866-1.787 11.93-9.275 21.088-18.815 27.852-20.525 14.59-49.033 24.09-73.853 27.054-17.219 2.052-37.288 1.824-54.088-3.42 11.783 3.686-1.216-2.508-3.459-3.685-3.687-1.938-7.298-3.42-11.251-4.826-9.046-3.23-20.601-7.524-30.18-7.372-9.578.152-13.037 5.852-18.89 12.805-18.511 22.039-40.519 40.772-59.068 62.924-20.715 24.737-40.974 49.891-61.081 75.121-17.979 22.609-34.78 45.521-51.39 69.118-7.83 11.095-16.002 22.304-26.112 31.462C13.253 272.909-.62 285.22-8.26 284.118l33.525 9.918c-12.924-7.03-4.98-32.906-2.243-43.811 4.295-17.213 10.49-33.78 16.572-50.385 9.997-27.32 19.651-54.64 32.346-80.897 12.696-26.256 25.657-57.224 43.712-81.162-.875 1.178-34.247-14.933-40.405-10.83C24.2 61.226-10.883 111.953-53.263 155.46c-23.073 23.71-48.349 45.217-74.462 65.47-8.4 6.535-16.724 12.995-24.896 19.834-5.55 4.636-17.219 17.327-25.239 16.757l31.814 8.094c-13.379-5.32-5.359-41.494-3.192-51.449 3.42-15.693 8.438-31.006 13.531-46.243 11.023-32.906 27.747-62.772 46.144-92.068 14.786-23.558 36.223-44.799 43.901-72.08.798-2.889-35.5-12.54-39.53-11.172-9.73 3.306-14.976 12.083-21.779 19.34-10.415 11.058-21.818 21.545-34.475 30.019-27.899 18.656-59.448 32.601-89.817 46.623-34.361 15.882-68.532 33.209-104.755 44.533-36.224 11.323-70.85 12.805-106.922 14.97-133.604 8.056-271.846-64.063-395.605 14.744-29.458 18.77-56.331 43.241-77.654 70.903-24.251 31.69-35.768 68.775-46.79 106.279-.761 2.659 39.416 14.135 40.404 10.829Z" stroke="#373545" stroke-width="8" mask="url(#background-welcome_svg__b)"/>
    <path d="M1021.2 21.062c-19.96-47.307-84.956-49.89-126.196-31.994-31.32 13.603-60.892 35.718-81.911 62.734-10.149 13.033-17.599 27.814-26.189 41.835-9.731 15.845-19.917 31.386-26.645 48.827-9.35 24.204-22.35 58.972-8.058 83.48 10.985 18.847 41.431 26.332 61.804 26.902 27.177.798 51.199-26.446 71.23-41.379 31.7-23.596 63.666-46.775 95.329-70.409 34.926-26.028 70.776-50.917 108.066-73.45 37.28-22.532 76.2-42.29 112.28-66.875.19-.152-16.31-6.497-16.99-6.687-6.62-1.862-15.59-5.472-22.54-4.484-13.88 1.9-25.09 14.857-35.69 22.912-20 15.237-41.28 28.422-60.52 44.685-25.08 21.203-46.56 45.787-64.96 72.918-11.284 16.68-34.356 46.888-28.047 68.775 2.889 9.993 12.43 12.957 21.4 15.921 16.537 5.472 34.857 10.183 52.227 6.459 39.95-8.625 72.37-45.331 101.03-72.005 23.53-21.886 41.66-44.191 55.19-72.955 10.53-22.304 27.56-52.778 25.58-78.313-.65-8.473-3.8-11.589-11.37-14.78-7.56-3.192-38.42-15.998-40.82-3.762-2.54 13.109 26.8 23.444 35.5 26.104 19.84 6.041 39.72 9.423 60.44 6.535 24.02-3.343 45.61-11.855 62.68-29.486 17.98-18.542 27.71-44.267 46.06-61.745.5-.494-18.09-6.992-19.65-7.41-4.22-1.14-16.61-6.308-20.71-3.382-26.42 18.733-41.13 49.473-53.79 78.389-13.91 31.842-24.17 65.128-34.55 98.261-11.02 35.186-22.57 70.182-31.47 106.013-4.26 17.137-8.02 34.274-10.34 51.791-2.01 15.161-3.91 29.676-11.02 43.393l40.4 10.829c3.84-49.282 34.97-93.853 63.29-132.649 15.01-20.556 31.7-39.821 52.76-54.374 9.96-6.878 20.49-12.843 30.14-20.215 10.49-7.98 22.43-17.82 36.53-17.365l-31.82-8.093c17.79 6.535-16.76 90.434-20.86 100.883-7 17.707-14.98 35.034-23.3 52.171-8.33 17.136-15.44 34.805-28.51 48.75l40.4 10.83c3.96-6.46 7.76-12.388 13.15-17.745l-40.4-10.829c0 2.811-.87 5.281-2.62 7.485.19-.342 36.83 16.301 40.4 10.829 14.83-22.95 29.88-46.433 50.25-64.937 10.38-9.424 21.7-16.529 34.17-22.799 9.66-4.863 21.63-13.223 32.77-12.007l-34.86-9.347c12.77 6.117 2.78 39.935-.46 49.776-9.12 28.004-22.76 54.185-31.39 82.569-8.63 28.384-14.67 59.922-19.12 90.244-2.66 18.162-10.23 52.474 7.79 65.621 9.47 6.878 34.48 13.983 45.54 8.55 8.59-4.218 14.06-15.693 20.64-22.457 10.18-10.449 20.9-20.176 30.71-31.006 39.95-44.229 68.95-94.195 101.45-143.744 18.13-27.662 37.93-53.652 59.86-78.389 11.59-13.033 28.74-42.823 48.31-42.443l-38.65-11.513-6.81.19 38.66 11.513c17.37-.836 32.76-13.755 48.35-20.557 17.86-7.827 36.11-14.287 53.25-23.71 29.95-16.453 60.78-40.62 75.37-72.5 12.35-26.977 2.74-47.002-24.06-55.552-11.33-3.61-24.1-7.409-36.11-7.181-17.03.342-29.19 10.753-42.07 20.67-30.53 23.521-57.67 47.877-77.58 81.353-15.74 26.408-29.69 56.388-36.38 86.558-5.47 24.547-4.29 52.247 19.73 66.154 24.02 13.907 55.72 19.607 82.18 22.001 37.78 3.419 63.59-15.503 94.45-34.16 30.86-18.657 57.7-46.129 88.11-67.142 66.63-46.053 137.21-86.482 211.33-119.16 39.65-17.479 79.06-32.602 122.47-36.971 41.09-4.18 81.76 2.128 122.81 3.002 85.56 1.823 169.64-3.572 254.63-12.426 44.77-4.673 90.12-9.727 132.46-25.914 39.34-15.047 77.31-36.022 114.37-55.932 24.94-13.413 39-33.362 49.6-59.01 2.59-6.27 8.1-17.403 3.08-23.749-6.5-8.245-27.71-10.031-37.25-11.627-7.52-1.254-6.23-.076-.76 2.85 8.1 4.332 19.54 6.118 28.55 7.637l1.82.304-33.52-9.917c10.41 5.814-8.06 36.136-11.63 42.519-11.63 20.937-26.61 33.476-48.31 44.229-29.99 14.819-59.07 31.5-89.71 44.99-33.06 14.552-67.88 22.266-103.57 27.13-70.32 9.537-141.89 17.098-212.9 17.364-38.92.152-77.99 1.444-116.84-1.292-32.99-2.317-65.22-4.901-98.25-.874-65.38 7.942-127.64 39.556-185.45 69.498-57.82 29.942-122.55 66.837-175.57 110.078-24.78 20.215-48.5 38.53-75.49 55.781-23.45 14.971-71.61 39.137-91.98 6.877-12.43-19.644-6.31-46.395.27-66.951 8.47-26.523 20.6-52.665 35.34-76.261 19.43-31.044 45.62-53.843 74.35-75.995 6.46-4.978 12.73-10.715 19.96-14.515.87-.456 15.5-6.194 15.62-5.168l-18.66-6.08 2.92 2.508c2.93 8.74 7.03 11.4 7.07 21.469 0 6.916-1.75 13.451-4.41 19.759-12.65 30.132-40.74 53.842-68.11 70.219-17.26 10.335-35.58 18.01-54.2 25.496-16.99 6.802-35.69 22.001-53.98 22.875-2.16.114 12.05 5.851 13.46 6.269 7.83 2.356 16.88 5.472 25.2 5.244l6.8-.19c2.09-.076-11.97-5.814-13.45-6.27-8.06-2.431-16.73-5.091-25.2-5.243-21.29-.418-39.65 31.424-52.38 45.673-27.29 30.55-50.4 64.063-72.18 98.679-21.78 34.616-41.43 67.218-66.86 97.882-12.12 14.629-24.67 29.106-38.35 42.329-6.61 6.383-13.49 12.387-19.31 19.568-5.4 6.612-9.16 14.477-18.51 15.845l38.96 10.45c-17.29-16.605-8.93-50.385-5.55-71.056 4.33-26.826 9.24-53.766 16.99-79.832 7.64-25.611 17.56-49.397 27.82-73.981 6.24-15.009 12.62-34.426 10.08-50.993-2.32-15.313-16.54-17.403-29.84-20.746-16.61-4.18-27.44-3.192-42.91 4.179-43.75 20.899-69.52 53.083-95.37 93.17l40.4 10.829c1.75-2.204 2.63-4.673 2.63-7.485.49-2.926-37.1-14.097-40.41-10.83-5.4 5.358-9.2 11.286-13.15 17.745.49-.798 35.54 15.997 40.4 10.83 17.91-19.037 27.87-46.585 38.58-70.068 10.99-24.014 19.92-48.447 27.71-73.677 4.56-14.781 18.74-45.825 5.06-59.2-9.43-9.195-34.86-14.135-47.78-13.147-21.13 1.596-38.12 19.949-54.96 30.854-24.18 15.655-43.33 33.78-60.63 56.806-29.87 39.708-63.02 86.748-67.01 137.703-.26 3.534 38.7 14.059 40.41 10.829 7.1-13.717 9-28.232 11.02-43.393 2.32-17.479 6.08-34.653 10.34-51.79 8.89-35.794 20.41-70.828 31.47-106.013 10.38-33.134 20.64-66.42 34.55-98.262 12.66-28.916 27.37-59.656 53.78-78.389l-40.4-10.829c-11.52 10.944-18.09 26.218-27.44 38.948-11.33 15.35-23.8 31.424-41.13 40.353-15.93 8.207-32.35 8.93-49.41 12.35-18.02 3.609 13.23 2.887 9.88 5.737-.57.494-6.96-4.788-7.75-5.472-3.27-2.888-4.87-5.358-7.53-8.93l-.57-2.697c3.88-12.235-6.58-16.415-31.32-12.463.23 6.573 3.08 11.855 1.9 19.454-1.6 10.374-5.09 20.519-8.7 30.322-6.92 18.847-15.28 37.314-24.56 55.135-13.23 25.496-35.19 45.141-56.1 64.291-25.01 22.875-51.62 51.677-85.1 61.48-9.32 2.736-31.02-.532-6.81 5.776 20.15 5.244 10.11 4.142 7.41-4.56-2.54-8.283 1.3-18.543 4.22-26.18 7.57-19.493 19.77-37.428 32.01-54.26 18.32-25.193 39.72-47.65 64.01-67.218 16.38-13.223 34.09-24.394 50.97-36.895 10.72-7.942 22.5-22.153 36.3-24.09l-39.53-11.172c-49.99 34.084-104.68 60.53-155.05 94.082-51.233 34.159-99.81 72.195-149.526 108.444-19.575 14.287-38.504 33.514-60.436 44.153-3.649 1.786-11.023 2.052-13.189 4.408-7.526 8.398 21.665-.38 18.396 5.168-.418.684-10.566-14.021-11.402-16.225-3.991-10.449-3.117-22.571-1.255-33.362 4.143-24.28 13.266-48.637 25.505-69.915 13.265-23.065 26.417-48.409 43.635-68.776 19.575-23.14 45.004-42.557 72.409-55.476 14.101-6.65 28.089-10.525 43.369-12.92 22.311-3.495-11.859.19-10.263-4.255 0 .038 5.816 4.75 6.31 5.244 5.435 5.547 8.742 12.615 11.707 19.645 1.786 4.255 15.698 6.383 19.65 7.409 1.9.494 20.6 3.116 20.72 3.382l.19-.228Z" stroke="#373545" stroke-width="8" mask="url(#background-welcome_svg__b)"/>
  </g>
  <defs>
    <clipPath id="background-welcome_svg__a">
      <path fill="#fff" d="M0 0h1280v202H0z"/>
    </clipPath>
  </defs>
</svg>
